<svg xmlns="http://www.w3.org/2000/svg" width="543.864" height="591.308" viewBox="0 0 543.864 591.308">
  <g id="BIRD_GREY" data-name="BIRD GREY" transform="translate(-169.692 398.196)" opacity="0.12">
    <path id="Path_5565" data-name="Path 5565" d="M363.142-14.259c-2.535-1.489-5.011-3.014-7.566-4.669l-5.01-3.24-3.193,5.039c-1.059,1.675-2.046,3.347-2.939,4.975-1.247,2.28-2.218,4.2-3.06,6.051-2,4.322-4.189,9.32-6.871,15.719-2.042,4.9-4.021,9.779-6.04,14.769l-.865,2.144c-14.808,36.645-33.2,82.169-63.94,116.087-25.864,28.527-56.734,45.15-93.966,50.5,32.916-10.512,57.6-24.831,78.558-45.32C278.6,118.127,299.1,76.718,320.531,23.671l.765-1.89c2.213-5.459,4.35-10.737,6.383-15.615,2.5-6.014,4.706-11.071,6.731-15.46,1.122-2.418,2.312-4.757,3.53-6.948,1.247-2.225,2.426-4.18,3.6-5.977l2.9-4.461-4.113-3.34c-21.788-17.848-37.041-39.775-48-69-10.05-26.839-15.43-56.984-21.126-88.9-6.919-38.8-15.23-79.839-29.13-117.57-14.124-38.373-32.23-68.752-55.27-92.7,67.911,6.555,108.872,53.951,156.142,108.648l15.072,17.426-1.633-18.263c-.178-1.973-.294-3.984-.345-5.975-.069-2.982,0-5.849.2-8.512,1.815-24.715,10.377-34.976,26.516-50.589,5.321,31.839,20.748,61.139,35.685,89.505l2.5,4.763c8.27,15.754,17.967,33.187,28.82,51.814,10.433,17.906,22.342,37.584,35.4,58.483l5.289,8.5,4.878-8.754a72.917,72.917,0,0,1,4.221-6.639,73.227,73.227,0,0,1,5.878-7.259,86.888,86.888,0,0,1,13.227-11.688,113.477,113.477,0,0,1,16.009-9.614c40.321-20.242,75.05-1.033,111.819,19.3,5.278,2.92,10.431,5.763,15.436,8.4,6.2,3.312,11.328,5.839,16.638,8.195l.314.1a261.314,261.314,0,0,1,34.68,10.307q-2.919-.5-5.757-.912c-17.6-2.5-32.724-2.354-46.254.437a81.884,81.884,0,0,0-36.234,17.308c-10.606,8.867-19.709,21.043-27.062,36.194-2.339,4.807-4.8,10.142-7.529,16.3-2.357,5.331-4.723,10.859-7.144,16.525-9.391,21.964-19.1,44.676-31.834,64.787-13.77,21.752-29.209,37.254-47.2,47.4l-10.979,6.224,11.8,4.466a54.865,54.865,0,0,1,10.8,5.39,41.277,41.277,0,0,1,6.993,5.678l-6.16,4.627c-5.772-5.51-14.3-9.428-25.392-11.656l-.6-.121a105.652,105.652,0,0,0-18.805-1.653l-.843-8.473c26.249-5.854,47.89-20.563,66.114-44.923,16.619-22.2,28.055-48.934,39.114-74.79,2.549-5.963,5.071-11.854,7.447-17.244,2.682-6.084,5.069-11.278,7.3-15.882,7.274-14.959,16.109-27.207,26.264-36.4a87.81,87.81,0,0,1,32.026-18.476l13.054-4.212-19.839-10.888c-17.439-9.635-33.848-18.7-50.942-23.463-19.651-5.474-37.255-4.091-53.822,4.222a108.66,108.66,0,0,0-14.694,8.815,80.553,80.553,0,0,0-12.32,10.836c-12.2,13.316-15.389,26.477-17.053,41.709-12.9-26.119-28.137-51.251-42.908-75.61l-.247-.408c-12.457-20.581-25.337-41.863-36.658-63.426-7.5-14.28-14.077-27.627-19.562-39.667-5.2-11.375-9.594-21.966-13.077-31.481l-4.638-12.639-6.165,11.972a61.074,61.074,0,0,0-4.323,10.824,70.472,70.472,0,0,0-2.552,14.359c-2.643,35.994,15.929,60.637,35.591,86.726,4.333,5.748,9.725,12.9,14.611,20.116,21.218,31.271,37.96,60.153,48.416,83.523q4.945,11.054,8.136,20.669c-9.277-17.861-20.534-37.192-33.587-57.669a1208.534,1208.534,0,0,0-73.388-102.137c-26.642-33.128-54-62.843-79.111-85.931-23.819-21.892-44.764-37.09-62.25-45.172l-18.582-8.549,11.143,17.133c18.614,28.67,32.835,59.59,43.473,94.524,9.651,31.669,15.112,62.226,20.393,91.775,5.425,30.429,10.54,59.111,20.045,84.992,10.611,28.925,25.3,50.535,46.235,68l4.233,3.537,3.814-3.979c.963-.995,1.952-1.966,2.934-2.9,1.376-1.285,2.529-2.305,3.614-3.2a70.1,70.1,0,0,1,16.344-10.328A55.882,55.882,0,0,1,393-57.813a42.039,42.039,0,0,1,21.877,3.07,33.252,33.252,0,0,1,15,13.252,32.042,32.042,0,0,1,3.964,10.278A29.444,29.444,0,0,1,434-20.6a25.142,25.142,0,0,1-4.046,10.083A24.068,24.068,0,0,1,422.1-3.3C416.4-.011,409.305,1.207,401,.3c-8.737-.981-18.459-4.221-28.885-9.624C368.941-10.964,366.005-12.579,363.142-14.259Zm34.536,6.437c.533.106,1.07.2,1.6.294a40.677,40.677,0,0,0,6.733.595,24.059,24.059,0,0,0,12.271-2.977,16.221,16.221,0,0,0,5.424-5.079,17.832,17.832,0,0,0,2.742-6.939,21.609,21.609,0,0,0-.175-8.027,24.182,24.182,0,0,0-2.984-7.583,25.774,25.774,0,0,0-12.36-10.507,35.8,35.8,0,0,0-17.174-2.171,48.3,48.3,0,0,0-15.058,4.2,63.569,63.569,0,0,0-14.193,9.046q-1.21,1.021-2.423,2.124l-6.9,6.58,6.38,4.038c2.493,1.571,4.426,2.747,6.269,3.811,2.539,1.487,5.163,2.937,7.795,4.306A86.206,86.206,0,0,0,397.678-7.822Z" transform="translate(0 0)" fill="#424143"/>
    <path id="Path_5566" data-name="Path 5566" d="M238.053-260.134a8.81,8.81,0,0,1,3.576-.765,8.811,8.811,0,0,1,3.127.578,8.733,8.733,0,0,1,4.874,4.607,8.68,8.68,0,0,1,.19,6.7,8.715,8.715,0,0,1-4.607,4.878,8.685,8.685,0,0,1-6.7.19,8.735,8.735,0,0,1-4.879-4.609,8.712,8.712,0,0,1-.186-6.7A8.747,8.747,0,0,1,238.053-260.134Z" transform="translate(357.006 93.396)" fill="#51908b"/>
  </g>
</svg>
