<svg xmlns="http://www.w3.org/2000/svg" width="160.369" height="47.422" viewBox="0 0 160.369 47.422">
  <g id="Group_840" data-name="Group 840" transform="translate(-602.09 -1383.086)">
    <g id="Group_838" data-name="Group 838" transform="translate(602.6 1383.5)">
      <path id="Path_23" data-name="Path 23" d="M367.532,228.2l-4.136-.187a12.174,12.174,0,0,1,.52-5.591c-8.949-1.342-17.972-2.375-27.03-3.3a237.022,237.022,0,0,1-33.646-3.787c11.311,1.53,22.506,2.633,33.646,3.787,9.089.492,18.271.867,27.45,1.567.471-2.148.548-4.09-1.389-5.49-2.647-2.846-12.75-.457-18.37-1.465-15.518-4-32.679-2.972-48.535-5.212-11.572-1.46-23.033-.005-34.334,1.685a104.014,104.014,0,0,1-11.871,1.419c-4,.324-8.039.46-11.966.731-7.856.508-15.337,1.3-21.311,3.853-10.542,4.947-3.256,17.005,8.433,20.25.183.9.548,2.707.729,3.608-11.15-.538-3.823,7.837-4.19,12.5a33.9,33.9,0,0,1,16.431,1.858l5.231-.5c15.337-1.473,30.242-2.926,45.145-3.783a361.239,361.239,0,0,1,44.863-.152c-19.405-1.932-37.847-2.369-57.25-.4.084-.6.43-1.359-.327-1.807,9.719-2.841,19.5-2.523,29.171-1.853,9.7.673,19.288,1.775,29.266.489-.015.9-.047,2.7-.064,3.621,6.956.485,13.951,1.211,20.979,2.32,2.939.1,5.584-1.531,7.882-3.574-10.3-3.6-21.424-5.311-32.7-6.216s-22.71-1.005-33.9-1.475c9.385-.337,20.165-1.392,29.574.438,13.385,1.836,25.488,1.216,37.283,4.459l1.905.651c.933-1,1.784-2.01,2.546-2.9C370.622,239.309,372.66,233,367.532,228.2Z" transform="translate(-211.464 -207.925)" fill="#51908b" stroke="#51908b" stroke-width="1"/>
    </g>
    <text id="בואו_נדבר" data-name="בואו נדבר" transform="translate(629 1390)" fill="#fff" font-size="20" font-family="Heebo-Bold, Heebo" font-weight="700"></text>
  </g>
</svg>
