<svg xmlns="http://www.w3.org/2000/svg" width="94.563" height="31" viewBox="0 0 94.563 31">
  <g id="Group_847" data-name="Group 847" transform="translate(-211.464 -207.925)">
    <path id="Path_23" data-name="Path 23" d="M304.166,221.443l-2.457-.125a9.061,9.061,0,0,1,.309-3.727c-5.315-.895-10.675-1.583-16.055-2.2a126.091,126.091,0,0,1-19.986-2.524c6.719,1.02,13.368,1.756,19.986,2.524,5.4.328,10.853.578,16.3,1.045.28-1.432.325-2.727-.825-3.66-1.572-1.9-7.573-.3-10.911-.977-9.217-2.666-19.411-1.982-28.829-3.475-6.874-.973-13.681,0-20.394,1.123a55.365,55.365,0,0,1-7.051.946c-2.378.216-4.775.307-7.107.487-4.666.338-9.11.864-12.658,2.569-6.262,3.3-1.934,11.337,5.009,13.5.109.6.325,1.8.433,2.405-6.623-.359-2.271,5.225-2.489,8.331a18.091,18.091,0,0,1,9.76,1.239l3.107-.335c9.11-.982,17.964-1.951,26.815-2.522a191.227,191.227,0,0,1,26.648-.1,148.6,148.6,0,0,0-34.006-.265c.05-.4.255-.906-.194-1.2,5.773-1.894,11.582-1.682,17.327-1.236s11.457,1.183,17.384.326c-.009.6-.028,1.8-.038,2.414,4.132.324,8.287.807,12.461,1.547,1.746.065,3.317-1.021,4.682-2.383a70.236,70.236,0,0,0-19.421-4.144c-6.7-.611-13.489-.67-20.135-.983,5.575-.225,11.978-.928,17.567.292,7.951,1.224,15.14.811,22.146,2.973l1.132.434c.554-.668,1.06-1.34,1.512-1.936C306,228.847,307.213,224.643,304.166,221.443Z" transform="translate(0 0)" fill="#d3e7e7"/>
  </g>
</svg>
