<svg id="IG" xmlns="http://www.w3.org/2000/svg" width="21.877" height="21.877" viewBox="0 0 21.877 21.877">
  <path id="Path_5562" data-name="Path 5562" d="M-2321.851-1604.01c2.92,0,3.266.011,4.42.064a6.05,6.05,0,0,1,2.031.377,3.377,3.377,0,0,1,1.258.818,3.385,3.385,0,0,1,.818,1.258,6.063,6.063,0,0,1,.377,2.031c.052,1.154.064,1.5.064,4.421s-.012,3.266-.064,4.42a6.064,6.064,0,0,1-.377,2.031,3.394,3.394,0,0,1-.818,1.258,3.391,3.391,0,0,1-1.258.818,6.054,6.054,0,0,1-2.031.377c-1.154.052-1.5.064-4.42.064s-3.267-.012-4.421-.064a6.051,6.051,0,0,1-2.031-.377,3.387,3.387,0,0,1-1.258-.818,3.389,3.389,0,0,1-.819-1.258,6.058,6.058,0,0,1-.377-2.031c-.053-1.153-.063-1.5-.063-4.42s.01-3.267.063-4.421a6.057,6.057,0,0,1,.377-2.031,3.381,3.381,0,0,1,.819-1.258,3.373,3.373,0,0,1,1.258-.818,6.047,6.047,0,0,1,2.031-.377c1.154-.053,1.5-.064,4.421-.064m0-1.97c-2.971,0-3.344.013-4.511.066a8.037,8.037,0,0,0-2.655.508,5.36,5.36,0,0,0-1.937,1.262,5.35,5.35,0,0,0-1.261,1.938,8.018,8.018,0,0,0-.509,2.655c-.053,1.167-.065,1.539-.065,4.51s.012,3.343.065,4.51a8.021,8.021,0,0,0,.509,2.655,5.358,5.358,0,0,0,1.261,1.938,5.366,5.366,0,0,0,1.937,1.261,8.028,8.028,0,0,0,2.655.508c1.167.053,1.54.066,4.511.066s3.343-.012,4.51-.066a8.029,8.029,0,0,0,2.655-.508,5.364,5.364,0,0,0,1.937-1.261,5.364,5.364,0,0,0,1.262-1.938,8.035,8.035,0,0,0,.508-2.655c.053-1.167.065-1.539.065-4.51s-.012-3.343-.065-4.51a8.033,8.033,0,0,0-.508-2.655,5.355,5.355,0,0,0-1.262-1.938,5.358,5.358,0,0,0-1.937-1.262,8.038,8.038,0,0,0-2.655-.508c-1.167-.053-1.539-.066-4.51-.066" transform="translate(2332.79 1605.981)" fill="#fff"/>
  <path id="Path_5563" data-name="Path 5563" d="M-2317.6-1596.413a5.617,5.617,0,0,0-5.617,5.617,5.617,5.617,0,0,0,5.617,5.617,5.617,5.617,0,0,0,5.617-5.617,5.617,5.617,0,0,0-5.617-5.617m0,9.264a3.647,3.647,0,0,1-3.646-3.646,3.646,3.646,0,0,1,3.646-3.646,3.646,3.646,0,0,1,3.646,3.646,3.646,3.646,0,0,1-3.646,3.646" transform="translate(2328.543 1601.734)" fill="#fff"/>
  <path id="Path_5564" data-name="Path 5564" d="M-2302.358-1597.859a1.313,1.313,0,0,1-1.313,1.313,1.313,1.313,0,0,1-1.312-1.312,1.312,1.312,0,0,1,1.313-1.313,1.313,1.313,0,0,1,1.313,1.313" transform="translate(2320.448 1602.959)" fill="#fff"/>
</svg>
