<svg xmlns="http://www.w3.org/2000/svg" width="19.999" height="20.008" viewBox="0 0 19.999 20.008">
  <g id="IN" transform="translate(0)">
    <g id="Group_828" data-name="Group 828">
      <rect id="Rectangle_2877" data-name="Rectangle 2877" width="4.129" height="13.339" transform="translate(0.397 6.669)" fill="#fff"/>
      <path id="Path_5557" data-name="Path 5557" d="M-1781.711-1466.658a2.452,2.452,0,0,0,2.442-2.462,2.451,2.451,0,0,0-2.442-2.461,2.451,2.451,0,0,0-2.442,2.461A2.452,2.452,0,0,0-1781.711-1466.658Z" transform="translate(1784.153 1471.581)" fill="#fff"/>
    </g>
    <path id="Path_5558" data-name="Path 5558" d="M-1767.309-1453.577c0-1.875.863-2.992,2.516-2.992,1.518,0,2.248,1.072,2.248,2.992v7h4.109v-8.446c0-3.573-2.025-5.3-4.853-5.3a4.65,4.65,0,0,0-4.019,2.2v-1.8h-3.961v13.339h3.961Z" transform="translate(1778.435 1466.583)" fill="#fff"/>
  </g>
</svg>
