<svg id="LOGO" xmlns="http://www.w3.org/2000/svg" width="127.817" height="74.992" viewBox="0 0 127.817 74.992">
  <g id="Group_906" data-name="Group 906" transform="translate(27.954 56.851)">
    <path id="Path_5598" data-name="Path 5598" d="M418.493,313.95c7.62.716,14.511.475,21.225,1.74l1.085.254c.531-.391,1.016-.784,1.45-1.133,1.735-1.729,2.895-4.188-.025-6.061l-2.355-.073a3.352,3.352,0,0,1,.3-2.181c-5.094-.524-10.232-.926-15.388-1.287" transform="translate(-353.376 -300.838)" fill="#cae2e1"/>
    <path id="Path_5599" data-name="Path 5599" d="M252.808,293.667c5.174.192,10.4.338,15.628.612a1.51,1.51,0,0,0-.791-2.142c-1.507-1.11-7.259-.178-10.458-.572-8.834-1.559-18.6-1.159-27.632-2.033a103.563,103.563,0,0,0-19.546.657c-2.2.282-4.474.445-6.758.554-2.28.126-4.577.179-6.813.285a53.835,53.835,0,0,0-12.132,1.5c-6,1.93-1.853,6.634,4.8,7.9l.416,1.407c-6.348-.21-2.177,3.058-2.386,4.876a27.645,27.645,0,0,1,9.355.725l2.978-.2c8.732-.575,17.218-1.141,25.7-1.476s16.954-.452,25.542-.059a232.783,232.783,0,0,0-32.594-.155c.049-.232.245-.53-.186-.705,5.533-1.108,11.1-.984,16.607-.723s10.981.692,16.663.191c-.009.353-.028,1.054-.037,1.413,3.96.189,7.943.472,11.944.9a8.3,8.3,0,0,0,4.488-1.394,105.5,105.5,0,0,0-18.614-2.425" transform="translate(-181.403 -289.298)" fill="#cae2e1"/>
    <g id="Group_905" data-name="Group 905" transform="translate(10.497 3.412)">
      <path id="Path_5600" data-name="Path 5600" d="M220.4,316.534v-8.96h-.777v-.73h1.553v9.69Z" transform="translate(-219.623 -305.436)" fill="#333334"/>
      <path id="Path_5601" data-name="Path 5601" d="M234.947,314.49l-1.174-3.16-.66-1.793-.572,4.953h-.777l.8-5.636-.8-2.009h.888l1.612,4.036.695-4.036h.812l-1.04,4.789,1.086,2.856Z" transform="translate(-228.429 -305.436)" fill="#333334"/>
      <path id="Path_5602" data-name="Path 5602" d="M255.04,313.952a1.7,1.7,0,0,1-.523.388,1.552,1.552,0,0,1-.686.149h-1.484v-.742h1.162a1.186,1.186,0,0,0,.929-.344.911.911,0,0,0,.231-.479,3.753,3.753,0,0,0,.049-.637v-3.207a2.788,2.788,0,0,0-.085-.727.954.954,0,0,0-.277-.482,1.034,1.034,0,0,0-.467-.248,1.976,1.976,0,0,0-.368-.05l-1.174.012v-.742h1.361a2.375,2.375,0,0,1,.66.1,1.543,1.543,0,0,1,.6.336,2.445,2.445,0,0,1,.219.266,1.336,1.336,0,0,1,.173.35,2.979,2.979,0,0,1,.114.491,4.5,4.5,0,0,1,.044.675v3.218a3.53,3.53,0,0,1-.125,1.043A1.617,1.617,0,0,1,255.04,313.952Z" transform="translate(-243.36 -305.436)" fill="#333334"/>
      <path id="Path_5603" data-name="Path 5603" d="M282.574,310.772H281.8l1.507-6.9h-2.441v-2.149h.788v1.419h2.6Z" transform="translate(-264.043 -301.719)" fill="#333334"/>
      <path id="Path_5604" data-name="Path 5604" d="M299.8,311.008l.012-3.434h-.789v-.73h1.554v4.164Z" transform="translate(-277.216 -305.436)" fill="#333334"/>
      <path id="Path_5605" data-name="Path 5605" d="M314.73,314.49v-6.915h-2.056v6.915h-.765v-7.646h3.61v7.646Z" transform="translate(-286.562 -305.436)" fill="#333334"/>
      <path id="Path_5606" data-name="Path 5606" d="M335.676,314.458H334.9v-5.981a.99.99,0,0,0-.222-.736.873.873,0,0,0-.648-.2l-1.209.012v6.9h-1.688v-.742h.946l-.035-6.138h-.514v-.754l2.628-.023a2.5,2.5,0,0,1,.555.061,1.235,1.235,0,0,1,.485.228,1.172,1.172,0,0,1,.347.458,1.866,1.866,0,0,1,.132.759Z" transform="translate(-300.506 -305.405)" fill="#333334"/>
      <path id="Path_5607" data-name="Path 5607" d="M356.137,314.242V313.5h1.507l-.1-5.081a1.683,1.683,0,0,0-.085-.578.988.988,0,0,0-.216-.359.676.676,0,0,0-.292-.178,1.136,1.136,0,0,0-.318-.047.71.71,0,0,0-.389.1.87.87,0,0,0-.263.257,1.207,1.207,0,0,0-.155.342,3.388,3.388,0,0,0-.082.362L355,314.242h-.835l.958-6.542q-.181-.058-.473-.12l-.508-.108.047-.97q.274.094.657.237t.733.313a1.627,1.627,0,0,1,.441-.371,1.4,1.4,0,0,1,.727-.166,2.37,2.37,0,0,1,.487.073,1.282,1.282,0,0,1,.57.295,1.491,1.491,0,0,1,.406.707,4.824,4.824,0,0,1,.132,1.279l.023,5.374Z" transform="translate(-317.195 -305.189)" fill="#333334"/>
      <path id="Path_5608" data-name="Path 5608" d="M387.579,311.008l.012-3.434H386.8v-.73h1.553v4.164Z" transform="translate(-340.886 -305.436)" fill="#333334"/>
      <path id="Path_5609" data-name="Path 5609" d="M399.817,314.49v-6.915h-.789v-.73h1.554v7.646Z" transform="translate(-349.754 -305.436)" fill="#333334"/>
      <path id="Path_5610" data-name="Path 5610" d="M411.084,314.49v-.742h1.472v-5.356a1.035,1.035,0,0,0-.149-.619.629.629,0,0,0-.534-.2h-.537v-.73h.8a1.577,1.577,0,0,1,.467.067.9.9,0,0,1,.377.228,1.143,1.143,0,0,1,.257.429,2,2,0,0,1,.1.666v6.255Z" transform="translate(-358.499 -305.436)" fill="#333334"/>
      <path id="Path_5611" data-name="Path 5611" d="M426.491,311.008l.012-3.434h-.789v-.73h1.553v4.164Z" transform="translate(-369.111 -305.436)" fill="#333334"/>
      <path id="Path_5612" data-name="Path 5612" d="M444.077,312.135a3.359,3.359,0,0,1-.172,1.1,2.082,2.082,0,0,1-.447.73,1.586,1.586,0,0,1-.33.242,2.614,2.614,0,0,1-.365.169,1.667,1.667,0,0,1-.348.091,2.062,2.062,0,0,1-.272.023h-3.411l-.239-7.646h.847l.111,6.915,1.484-.012-.035-1.361-.023-5.543h.789l-.035,6.9h.461a1.222,1.222,0,0,0,.4-.09,1.172,1.172,0,0,0,.414-.254,1.7,1.7,0,0,0,.38-1.244l.012-5.315h.829Z" transform="translate(-378.38 -305.436)" fill="#333334"/>
      <path id="Path_5613" data-name="Path 5613" d="M469.107,314.49v-6.915h-2.821v-.73h3.61v7.646Zm-2.821,0v-5.514h.765v5.514Z" transform="translate(-398.539 -305.436)" fill="#333334"/>
    </g>
  </g>
  <g id="Group_907" data-name="Group 907" transform="translate(77.483 5.431)">
    <path id="Path_5614" data-name="Path 5614" d="M374.4,132.232a39.852,39.852,0,0,0,2.779,5.655,11.885,11.885,0,0,0,4.157,4.171l.684.387-.735.278a4.914,4.914,0,0,0-.968.483,3.666,3.666,0,0,0-.746.635l.767.576a4.119,4.119,0,0,1,2.223-1.063l.053-.011a9.2,9.2,0,0,1,1.739-.14l.1-1a9.5,9.5,0,0,1-5.791-3.879,31.189,31.189,0,0,1-3.384-6.474c-.222-.519-.441-1.032-.648-1.5-.236-.536-.444-.988-.637-1.386a10.44,10.44,0,0,0-2.317-3.21,7.779,7.779,0,0,0-2.838-1.637l-.813-.262,1.428-.784a21.251,21.251,0,0,1,4.4-2.028,6.122,6.122,0,0,1,4.576.357,9.321,9.321,0,0,1,1.258.754,6.845,6.845,0,0,1,1.049.923,6.1,6.1,0,0,1,1.5,4.058c1.16-2.424,2.577-4.763,3.951-7.03,1.092-1.8,2.221-3.667,3.214-5.559.65-1.237,1.223-2.4,1.7-3.457.454-.994.838-1.918,1.142-2.748l.288-.786.384.745a5.144,5.144,0,0,1,.366.916,5.957,5.957,0,0,1,.216,1.218c.226,3.074-1.373,5.2-3.066,7.443-.378.5-.849,1.127-1.275,1.755a50.283,50.283,0,0,0-4.223,7.286,15.074,15.074,0,0,0-1.087,3.21,60.756,60.756,0,0,1,3.557-6.29,104.812,104.812,0,0,1,6.373-8.869,69.406,69.406,0,0,1,6.865-7.457,22.592,22.592,0,0,1,5.376-3.9l1.157-.532-.693,1.066a32.11,32.11,0,0,0-3.8,8.257,67.4,67.4,0,0,0-1.778,8,44.012,44.012,0,0,1-1.736,7.361,13.173,13.173,0,0,1-3.977,5.851l-.263.22-.237-.247c-.086-.088-.173-.174-.26-.257-.105-.1-.212-.194-.322-.285a6.24,6.24,0,0,0-1.455-.919,5.011,5.011,0,0,0-1.528-.416,3.812,3.812,0,0,0-1.978.279,3.04,3.04,0,0,0-1.37,1.211,2.93,2.93,0,0,0-.363.94,2.716,2.716,0,0,0-.016.976,2.332,2.332,0,0,0,.376.935,2.235,2.235,0,0,0,.731.671,3.109,3.109,0,0,0,1.923.332,7.517,7.517,0,0,0,2.564-.853c.287-.148.544-.291.787-.433.207-.121.424-.254.663-.409l.312-.2.2.314c.087.138.171.279.251.425.107.195.19.359.261.516.177.382.366.814.6,1.363.177.425.349.849.525,1.282l.075.187c1.29,3.193,2.9,7.168,5.588,10.139a13.519,13.519,0,0,0,9.82,4.585,17.5,17.5,0,0,1-8.27-4.338c-2.622-2.563-4.4-6.149-6.252-10.744l-.066-.164c-.193-.475-.378-.935-.556-1.359-.22-.528-.412-.969-.587-1.35-.1-.213-.2-.42-.312-.614s-.215-.369-.319-.528l-.18-.277.255-.208A13.687,13.687,0,0,0,400,128.327a44.865,44.865,0,0,0,1.845-7.762,60.425,60.425,0,0,1,2.526-10.193,22.206,22.206,0,0,1,5.049-8.29c-6.2.426-9.85,4.648-14.069,9.53l-1.014,1.173.1-1.137c.015-.17.026-.348.031-.529.006-.262,0-.516-.018-.755-.172-2.343-1.066-3.263-2.553-4.688a25.513,25.513,0,0,1-3.134,8.019l-.215.411c-.717,1.366-1.559,2.881-2.5,4.5-.914,1.569-1.949,3.278-3.076,5.082l-.329.528-.3-.545a6.682,6.682,0,0,0-.9-1.236,7.7,7.7,0,0,0-1.172-1.036,10.009,10.009,0,0,0-1.413-.848c-3.573-1.793-6.627-.106-9.86,1.682-.447.247-.9.5-1.34.729-.533.285-.971.5-1.438.708a22.852,22.852,0,0,0-3.591,1.119q-.446.18-.89.382c.7-.169,1.365-.3,2.02-.4a11.532,11.532,0,0,1,3.972.037,6.976,6.976,0,0,1,3.087,1.474,9.23,9.23,0,0,1,2.315,3.1c.208.426.421.889.653,1.413C373.988,131.26,374.194,131.741,374.4,132.232Zm19.76,2.173-.4.251c-.176.111-.357.223-.54.328-.213.125-.439.25-.672.371a7.331,7.331,0,0,1-1.879.707l-.136.025a2.3,2.3,0,0,1-1.554-.19,1.266,1.266,0,0,1-.423-.4,1.4,1.4,0,0,1-.216-.547,1.734,1.734,0,0,1,.014-.644,1.956,1.956,0,0,1,.242-.613,2.094,2.094,0,0,1,1.006-.854,2.962,2.962,0,0,1,1.422-.178,4.045,4.045,0,0,1,1.264.353,5.373,5.373,0,0,1,1.2.766c.068.057.137.118.206.18Z" transform="translate(-361.737 -102.081)" fill="#333334"/>
    <path id="Path_5615" data-name="Path 5615" d="M401.549,175.32a.909.909,0,1,0,.477.505A.908.908,0,0,0,401.549,175.32Z" transform="translate(-389.686 -155.147)" fill="#438079"/>
  </g>
  <g id="Group_908" data-name="Group 908">
    <path id="Path_5616" data-name="Path 5616" d="M114.69,88.494c9.212,0,15.148,8.325,15.225,14.068s-3.045,6.938-3.97,6.938a1.089,1.089,0,0,1-.964-.578,1.229,1.229,0,0,1,.54-1.619,1.818,1.818,0,0,0,.655-1.658c0-5.357-5.011-10.214-10.908-11.1-2.775-.424-4.355-1.58-4.124-3.508C111.337,89.457,112.532,88.494,114.69,88.494Z" transform="translate(-102.471 -86.794)" fill="#438079"/>
    <path id="Path_5617" data-name="Path 5617" d="M183.847,105.011a1.038,1.038,0,0,1-1.079-.732.905.905,0,0,1,.771-1.079.932.932,0,0,0,.848-1.118c-.231-1.85-2.775-2.621-5.4-3.508-2.737-.925-5.126-1.7-5.242-3.739-.077-1.233.848-2.428,2.814-2.158,1.5.231,5.974,1.464,6.591.308.308-.578-.154-1.542-1.927-2.505-2.737-1.5-5.628-2.236-9.944-2.583-1.812-.154-3.315-1.233-3.392-2.891s1.272-2.775,3.893-2.7c8.518.231,15.07,4.895,15.379,9.636a3.761,3.761,0,0,1-3.122,3.932c1.966.848,4.2,2.428,4.355,4.587A4.414,4.414,0,0,1,183.847,105.011Z" transform="translate(-143.645 -82.305)" fill="#438079"/>
    <path id="Path_5618" data-name="Path 5618" d="M262.987,104.131c-.038-.54.347-.81.809-.964.771-.27.964-1,.887-2.274-.27-4.7-6.321-13.143-25.285-12.334a3.186,3.186,0,0,1-3.161-3.392c-.038-1.465,1.311-2.659,3.161-2.775,16.458-.963,28.561,7.131,29.062,15.417.347,5.936-3.238,7.208-4.355,7.208A1.039,1.039,0,0,1,262.987,104.131Zm-8.287-1c.347-.27.771-.347.732-1-.116-1.812-5.511-3.777-5.781-6.283a2.6,2.6,0,0,1,2.621-3.16c2.891-.116,5.781,3.315,6.129,7.092.193,2.12-.925,4.741-2.929,4.895A.886.886,0,0,1,254.7,103.129Z" transform="translate(-193.223 -82.312)" fill="#438079"/>
    <path id="Path_5619" data-name="Path 5619" d="M89.8,227.044c.231-.424.771-.424.925-1.2.308-1.734-2.621-8.788-5.165-13.606-2.467-4.664-5.974-9.212-5.936-10.792a2.643,2.643,0,0,1,2.929-2.929c2.891.077,6.591,7.863,8.672,12.874,1.7,4.163,3.7,10.792,3.392,13.375-.347,2.582-2.891,3.276-4.085,3.276C89.955,228.046,89.531,227.583,89.8,227.044Z" transform="translate(-79.625 -166.6)" fill="#438079"/>
    <path id="Path_5620" data-name="Path 5620" d="M123.969,211.029c-.385-2.081-2.467-5.627-3.662-7.208a2.8,2.8,0,0,1,.771-4.317c1.465-.771,3.43.193,4.548,1.889a16.116,16.116,0,0,1,2.2,8.017c-.116,2.2-1.58,2.852-2.313,2.891A1.4,1.4,0,0,1,123.969,211.029Z" transform="translate(-108.627 -167.12)" fill="#438079"/>
    <path id="Path_5621" data-name="Path 5621" d="M157.965,202.948c-2.929-.308-4.7-1.31-4.664-3.276.038-2.081,1.773-3.007,3.854-2.968,7.208.116,17.923,6.205,17.614,15.109-.154,4.278-2.7,6.938-5.627,6.745a1.178,1.178,0,0,1-1.118-1.156,1.02,1.02,0,0,1,1-1c.848-.039,1.657-1.041,1.657-2.582C170.684,208.691,164.9,203.642,157.965,202.948Zm6.321,25.554c.848.154,3.083-1,3.661-4.24.386-2.043-.5-6.4-1.889-10.06a30.6,30.6,0,0,0-2.775-5.627c-1.156-1.889-2.852-2.428-4.432-1.58-1.388.771-1.735,2.467-.887,4.162.771,1.7,2.2,3.662,3.353,5.859,1.542,2.891,3.662,6.745,3.122,8.942-.231.925-.732,1.079-.887,1.465C163.361,227.924,163.708,228.387,164.286,228.5Z" transform="translate(-133.065 -165.283)" fill="#438079"/>
    <path id="Path_5622" data-name="Path 5622" d="M231.323,211.029c-.385-2.081-2.467-5.627-3.662-7.208a2.8,2.8,0,0,1,.771-4.317c1.465-.771,3.43.193,4.548,1.889a16.11,16.11,0,0,1,2.2,8.017c-.116,2.2-1.58,2.852-2.313,2.891A1.4,1.4,0,0,1,231.323,211.029Z" transform="translate(-186.497 -167.12)" fill="#438079"/>
    <path id="Path_5623" data-name="Path 5623" d="M266.661,210.989a59.963,59.963,0,0,0-4.355-7.362c-.925-1.427-.694-3.315.848-3.97a4.225,4.225,0,0,1,4.972,1.812c1.388,2.12,2.968,6.668,2.891,8.942-.038,1.118-.462,2.39-1.465,2.737C268.473,213.532,267.509,212.761,266.661,210.989Z" transform="translate(-211.736 -167.234)" fill="#438079"/>
    <path id="Path_5624" data-name="Path 5624" d="M326.764,212.265c0,4.085-2.544,4.587-3.083,4.587a.847.847,0,0,1-.578-1.5,1.162,1.162,0,0,0,.578-1c0-.964-3.315-9.019-13.606-12.835.347,3.122,4.124,8.287,4.124,11.524a4.344,4.344,0,0,1-3.816,4.124.75.75,0,0,1-.539-1.31c.231-.231.539-.308.539-1,0-.848-4.895-8.056-4.895-10.445a4.2,4.2,0,0,1,2.081-3.7c-2.081-.732-3.932-1.812-3.238-4.124a2.941,2.941,0,0,1,3.122-1.85C314.854,195.036,326.8,202.706,326.764,212.265Z" transform="translate(-242.508 -163.846)" fill="#438079"/>
  </g>
</svg>
