<svg id="TW" xmlns="http://www.w3.org/2000/svg" width="21.259" height="17.276" viewBox="0 0 21.259 17.276">
  <path id="Path_5555" data-name="Path 5555" d="M-2058.76-1584.894a12.34,12.34,0,0,0,6.686,1.96,12.336,12.336,0,0,0,12.4-12.974,8.856,8.856,0,0,0,2.176-2.258,8.729,8.729,0,0,1-2.505.686,4.37,4.37,0,0,0,1.917-2.413,8.752,8.752,0,0,1-2.769,1.059,4.357,4.357,0,0,0-3.185-1.377,4.365,4.365,0,0,0-4.248,5.355,12.379,12.379,0,0,1-8.99-4.558,4.367,4.367,0,0,0,1.35,5.824,4.351,4.351,0,0,1-1.977-.546,4.367,4.367,0,0,0,3.5,4.333,4.372,4.372,0,0,1-1.969.074,4.364,4.364,0,0,0,4.074,3.029A8.766,8.766,0,0,1-2058.76-1584.894Z" transform="translate(2058.76 1600.21)" fill="#51908b"/>
</svg>
